<?xml version="1.0" encoding="UTF-8" standalone="no"?>
<!-- Created with Inkscape (http://www.inkscape.org/) -->

<svg
   xmlns:dc="http://purl.org/dc/elements/1.1/"
   xmlns:cc="http://creativecommons.org/ns#"
   xmlns:rdf="http://www.w3.org/1999/02/22-rdf-syntax-ns#"
   xmlns:svg="http://www.w3.org/2000/svg"
   xmlns="http://www.w3.org/2000/svg"
   xmlns:xlink="http://www.w3.org/1999/xlink"
   xmlns:sodipodi="http://sodipodi.sourceforge.net/DTD/sodipodi-0.dtd"
   xmlns:inkscape="http://www.inkscape.org/namespaces/inkscape"
   width="610mm"
   height="403.74594mm"
   viewBox="0 0 609.99998 403.74595"
   version="1.1"
   id="svg569"
   inkscape:version="0.92.2 (unknown)"
   sodipodi:docname="contact-bg.svg"
   inkscape:export-filename="/home/valentin/git/vushe.github.io/static/contact-bg.png"
   inkscape:export-xdpi="96"
   inkscape:export-ydpi="96">
  <defs
     id="defs563">
    <clipPath
       clipPathUnits="userSpaceOnUse"
       id="clipPath3562">
      <rect
         inkscape:export-ydpi="96"
         inkscape:export-xdpi="96"
         style="opacity:1;fill:url(#radialGradient3566);fill-opacity:1;fill-rule:nonzero;stroke:none;stroke-width:0.12951134;stroke-linecap:round;stroke-linejoin:round;stroke-miterlimit:4;stroke-dasharray:none;stroke-dashoffset:0;stroke-opacity:1"
         id="rect3564"
         width="26.617672"
         height="17.64016"
         x="-26.129383"
         y="-17.579992" />
    </clipPath>
    <clipPath
       clipPathUnits="userSpaceOnUse"
       id="clipPath549">
      <rect
         inkscape:export-ydpi="96"
         inkscape:export-xdpi="96"
         style="opacity:1;fill:url(#radialGradient3566);fill-opacity:1;fill-rule:nonzero;stroke:none;stroke-width:0.12951134;stroke-linecap:round;stroke-linejoin:round;stroke-miterlimit:4;stroke-dasharray:none;stroke-dashoffset:0;stroke-opacity:1"
         id="rect547"
         width="26.617672"
         height="17.64016"
         x="-26.129383"
         y="-17.579992" />
    </clipPath>
    <radialGradient
       r="87.432137"
       fy="450.06689"
       fx="89.001976"
       cy="450.06689"
       cx="89.001976"
       gradientTransform="matrix(1.7618639,-5.1476818e-8,0,1.4844677,261.43757,-131.65301)"
       gradientUnits="userSpaceOnUse"
       id="radialGradient1652"
       xlink:href="#linearGradient1488"
       inkscape:collect="always" />
    <linearGradient
       inkscape:collect="always"
       id="linearGradient1488">
      <stop
         style="stop-color:#ffffff;stop-opacity:1"
         offset="0"
         id="stop1484" />
      <stop
         style="stop-color:#5479a5;stop-opacity:1"
         offset="1"
         id="stop1486" />
    </linearGradient>
    <radialGradient
       inkscape:collect="always"
       xlink:href="#linearGradient1488"
       id="radialGradient1482"
       gradientUnits="userSpaceOnUse"
       gradientTransform="matrix(1.7618639,-5.1476818e-8,0,1.4844677,261.43757,-131.65301)"
       cx="89.001976"
       cy="450.06689"
       fx="89.001976"
       fy="450.06689"
       r="87.432137" />
  </defs>
  <sodipodi:namedview
     id="base"
     pagecolor="#ffffff"
     bordercolor="#666666"
     borderopacity="1.0"
     inkscape:pageopacity="0.0"
     inkscape:pageshadow="2"
     inkscape:zoom="0.1794917"
     inkscape:cx="538.48423"
     inkscape:cy="-234.7696"
     inkscape:document-units="mm"
     inkscape:current-layer="g299"
     showgrid="false"
     fit-margin-top="0"
     fit-margin-left="0"
     fit-margin-right="0"
     fit-margin-bottom="0" />
  <metadata
     id="metadata566">
    <rdf:RDF>
      <cc:Work
         rdf:about="">
        <dc:format>image/svg+xml</dc:format>
        <dc:type
           rdf:resource="http://purl.org/dc/dcmitype/StillImage" />
        <dc:title></dc:title>
      </cc:Work>
    </rdf:RDF>
  </metadata>
  <g
     inkscape:label="Layer 1"
     inkscape:groupmode="layer"
     id="layer1"
     transform="translate(0.60924576,288.43949)">
    <g
       transform="translate(-279.27069,-426.07481)"
       id="g299">
      <g
         id="g1480"
         transform="matrix(3.4839717,0,0,3.4839717,-871.27983,-1297.3688)">
        <rect
           inkscape:export-ydpi="96"
           inkscape:export-xdpi="96"
           style="opacity:1;fill:#ffffff;fill-opacity:1;fill-rule:nonzero;stroke:none;stroke-width:0.85082227;stroke-linecap:round;stroke-linejoin:round;stroke-miterlimit:4;stroke-dasharray:none;stroke-dashoffset:0;stroke-opacity:1"
           id="rect1458"
           width="174.86427"
           height="115.88668"
           x="330.06619"
           y="411.88742" />
        <g
           id="g1444">
          <g
             clip-path="url(#clipPath3562)"
             style="fill:#c6c6c6;fill-opacity:1;stroke:#ffffff;stroke-opacity:1"
             transform="matrix(6.5694807,0,0,6.5694807,501.94592,527.37884)"
             inkscape:label="Gear12"
             id="g3308">
            <path
               inkscape:connector-curvature="0"
               d="m 8.33259,-1.22361 1.06349,-0.15617 0.6238,0.06064 1.75925,0.79639 v 1.0455 L 10.01988,1.31914 9.39608,1.37978 8.33259,1.22361 7.82804,3.10662 8.82714,3.50312 9.33704,3.86753 10.4624,5.43686 9.93966,6.34228 8.0179,6.15235 7.44736,5.89297 6.60443,5.22597 5.22597,6.60443 5.89297,7.44736 6.15235,8.0179 6.34228,9.93966 5.43686,10.4624 3.86753,9.33704 3.50312,8.82714 3.10662,7.82804 1.22361,8.33259 1.37978,9.39608 1.31914,10.01988 0.52275,11.77913 h -1.0455 l -0.79639,-1.75925 -0.06064,-0.6238 0.15617,-1.06349 -1.88301,-0.50455 -0.3965,0.9991 -0.36441,0.5099 -1.56933,1.12536 -0.90542,-0.52274 0.18993,-1.92176 0.25938,-0.57054 0.667,-0.84293 -1.37846,-1.37846 -0.84293,0.667 -0.57054,0.25938 -1.92176,0.18993 -0.52274,-0.90542 1.12536,-1.56933 0.5099,-0.36441 0.9991,-0.3965 -0.50455,-1.88301 -1.06349,0.15617 -0.6238,-0.06064 -1.75925,-0.79639 v -1.0455 l 1.75925,-0.79639 0.6238,-0.06064 1.06349,0.15617 0.50455,-1.88301 -0.9991,-0.3965 -0.5099,-0.36441 -1.12536,-1.56933 0.52274,-0.90542 1.92176,0.18993 0.57054,0.25938 0.84293,0.667 1.37846,-1.37846 -0.667,-0.84293 -0.25938,-0.57054 -0.18993,-1.92176 0.90542,-0.52274 1.56933,1.12536 0.36441,0.5099 0.3965,0.9991 1.88301,-0.50455 -0.15617,-1.06349 0.06064,-0.6238 0.79639,-1.75925 h 1.0455 l 0.79639,1.75925 0.06064,0.6238 -0.15617,1.06349 1.88301,0.50455 0.3965,-0.9991 0.36441,-0.5099 1.56933,-1.12536 0.90542,0.52274 -0.18993,1.92176 -0.25938,0.57054 -0.667,0.84293 1.37846,1.37846 0.84293,-0.667 0.57054,-0.25938 1.92176,-0.18993 0.52274,0.90542 -1.12536,1.56933 -0.5099,0.36441 -0.9991,0.3965 z"
               style="fill:#c6c6c6;fill-opacity:1;stroke:#ffffff;stroke-width:0.26458332;stroke-opacity:1"
               id="path3304" />
            <circle
               r="2.6458333"
               cy="0"
               cx="0"
               style="fill:#c6c6c6;fill-opacity:1;stroke:#ffffff;stroke-width:0.26458332;stroke-opacity:1"
               id="path3306" />
          </g>
          <g
             id="g3572"
             inkscape:label="Gear12"
             transform="matrix(-6.5694807,0,0,-6.5694807,333.49723,412.28269)"
             style="fill:#c6c6c6;fill-opacity:1;stroke:#ffffff;stroke-opacity:1"
             clip-path="url(#clipPath3562)">
            <path
               id="path3568"
               style="fill:#c6c6c6;fill-opacity:1;stroke:#ffffff;stroke-width:0.26458332;stroke-opacity:1"
               d="m 8.33259,-1.22361 1.06349,-0.15617 0.6238,0.06064 1.75925,0.79639 v 1.0455 L 10.01988,1.31914 9.39608,1.37978 8.33259,1.22361 7.82804,3.10662 8.82714,3.50312 9.33704,3.86753 10.4624,5.43686 9.93966,6.34228 8.0179,6.15235 7.44736,5.89297 6.60443,5.22597 5.22597,6.60443 5.89297,7.44736 6.15235,8.0179 6.34228,9.93966 5.43686,10.4624 3.86753,9.33704 3.50312,8.82714 3.10662,7.82804 1.22361,8.33259 1.37978,9.39608 1.31914,10.01988 0.52275,11.77913 h -1.0455 l -0.79639,-1.75925 -0.06064,-0.6238 0.15617,-1.06349 -1.88301,-0.50455 -0.3965,0.9991 -0.36441,0.5099 -1.56933,1.12536 -0.90542,-0.52274 0.18993,-1.92176 0.25938,-0.57054 0.667,-0.84293 -1.37846,-1.37846 -0.84293,0.667 -0.57054,0.25938 -1.92176,0.18993 -0.52274,-0.90542 1.12536,-1.56933 0.5099,-0.36441 0.9991,-0.3965 -0.50455,-1.88301 -1.06349,0.15617 -0.6238,-0.06064 -1.75925,-0.79639 v -1.0455 l 1.75925,-0.79639 0.6238,-0.06064 1.06349,0.15617 0.50455,-1.88301 -0.9991,-0.3965 -0.5099,-0.36441 -1.12536,-1.56933 0.52274,-0.90542 1.92176,0.18993 0.57054,0.25938 0.84293,0.667 1.37846,-1.37846 -0.667,-0.84293 -0.25938,-0.57054 -0.18993,-1.92176 0.90542,-0.52274 1.56933,1.12536 0.36441,0.5099 0.3965,0.9991 1.88301,-0.50455 -0.15617,-1.06349 0.06064,-0.6238 0.79639,-1.75925 h 1.0455 l 0.79639,1.75925 0.06064,0.6238 -0.15617,1.06349 1.88301,0.50455 0.3965,-0.9991 0.36441,-0.5099 1.56933,-1.12536 0.90542,0.52274 -0.18993,1.92176 -0.25938,0.57054 -0.667,0.84293 1.37846,1.37846 0.84293,-0.667 0.57054,-0.25938 1.92176,-0.18993 0.52274,0.90542 -1.12536,1.56933 -0.5099,0.36441 -0.9991,0.3965 z"
               inkscape:connector-curvature="0" />
            <circle
               id="circle3570"
               style="fill:#c6c6c6;fill-opacity:1;stroke:#ffffff;stroke-width:0.26458332;stroke-opacity:1"
               cx="0"
               cy="0"
               r="2.6458333" />
          </g>
          <rect
             inkscape:export-ydpi="96"
             inkscape:export-xdpi="96"
             style="opacity:0.67699998;fill:url(#radialGradient1482);fill-opacity:1;fill-rule:nonzero;stroke:none;stroke-width:0.85082227;stroke-linecap:round;stroke-linejoin:round;stroke-miterlimit:4;stroke-dasharray:none;stroke-dashoffset:0;stroke-opacity:1"
             id="rect1628"
             width="174.86427"
             height="115.88668"
             x="330.06622"
             y="411.88742" />
        </g>
      </g>
    </g>
  </g>
</svg>
